<?xml version="1.0" standalone="no"?>
<!DOCTYPE svg PUBLIC "-//W3C//DTD SVG 20010904//EN"
 "http://www.w3.org/TR/2001/REC-SVG-20010904/DTD/svg10.dtd">
<svg version="1.0" xmlns="http://www.w3.org/2000/svg"
 width="1200.000000pt" height="1200.000000pt" viewBox="0 0 1200.000000 1200.000000"
 preserveAspectRatio="xMidYMid meet">

<g transform="translate(0.000000,1200.000000) scale(0.100000,-0.100000)"
fill="#000000" stroke="none">
<path d="M1440 11943 c0 -70 20 -157 47 -209 15 -29 36 -48 89 -76 96 -52 179
-71 280 -66 68 4 93 10 160 43 79 38 79 38 219 41 184 4 256 25 325 93 47 47
80 114 94 194 5 29 4 37 -8 37 -9 0 -17 -15 -21 -39 -9 -52 -57 -151 -86 -178
-59 -54 -204 -90 -315 -79 -76 8 -136 -5 -223 -47 -115 -56 -269 -49 -401 18
-86 44 -113 91 -131 234 -13 102 -29 121 -29 34z"/>
<path d="M1831 11983 c79 -101 232 -117 342 -38 50 38 59 55 27 55 -11 0 -20
-4 -20 -10 0 -17 -85 -60 -131 -66 -58 -8 -121 10 -163 46 -38 34 -79 43 -55
13z"/>
<path d="M4198 11908 c-2 -66 1 -101 11 -119 12 -23 12 -32 -1 -70 -10 -29
-21 -45 -34 -47 -71 -13 -114 -61 -114 -127 0 -78 52 -123 130 -112 22 3 40 1
40 -4 0 -16 63 -49 93 -49 64 0 117 54 117 120 0 34 -20 79 -43 99 -13 10 -13
18 1 61 10 31 23 52 38 59 13 6 35 34 50 63 33 65 77 130 122 180 31 34 32 38
13 38 -25 0 -85 -74 -149 -182 -51 -88 -38 -86 -172 -39 l-75 26 3 98 c3 82 2
97 -11 97 -13 0 -16 -18 -19 -92z m135 -169 c53 -15 55 -21 31 -92 l-16 -47
31 -29 c41 -39 43 -96 5 -135 -46 -45 -104 -33 -139 29 -9 15 -15 16 -32 6
-77 -40 -155 35 -118 113 16 34 46 52 94 58 20 2 28 14 44 61 15 45 23 58 36
54 9 -3 37 -11 64 -18z"/>
<path d="M6015 11958 c39 -229 162 -460 327 -614 128 -118 299 -211 471 -255
105 -27 315 -37 424 -19 290 46 543 204 716 445 43 60 117 203 117 225 0 11
-48 35 -157 80 -87 35 -222 90 -300 122 -98 41 -153 58 -175 56 -27 -2 16 -23
225 -107 141 -58 257 -110 257 -116 0 -6 -20 -45 -44 -87 -120 -210 -291 -354
-511 -427 -175 -58 -353 -65 -520 -20 -44 12 -87 22 -97 23 -9 1 -22 7 -30 13
-7 6 -33 21 -58 33 -239 120 -434 372 -482 624 -8 40 -18 66 -25 66 -18 0 -16
-24 8 -116 53 -206 198 -413 375 -535 53 -36 199 -111 211 -107 4 1 17 -3 28
-9 69 -37 283 -60 409 -44 325 44 589 230 735 519 17 34 33 62 36 62 12 0 85
-33 85 -39 -1 -17 -95 -179 -137 -233 -256 -333 -685 -484 -1083 -382 -383 99
-680 405 -764 786 -14 64 -26 98 -34 98 -11 0 -12 -10 -7 -42z"/>
<path d="M7690 11996 c0 -9 531 -218 543 -213 13 5 49 110 63 185 5 25 3 32
-9 32 -9 0 -17 -14 -21 -37 -9 -47 -36 -135 -45 -146 -7 -7 -68 14 -82 28 -4
3 2 33 12 66 23 73 24 89 4 89 -8 0 -15 -8 -15 -18 0 -17 -28 -112 -36 -121
-4 -5 -316 119 -328 130 -10 9 -86 13 -86 5z"/>
<path d="M9507 11936 c-43 -162 -5 -238 132 -265 210 -41 701 -39 892 5 73 16
112 48 125 101 10 38 -1 143 -20 187 l-16 38 -53 -5 c-28 -3 -72 -10 -97 -16
-62 -14 -307 -26 -297 -15 5 5 23 14 40 21 l32 11 -37 1 c-20 1 -62 -5 -91
-13 -41 -11 -64 -12 -93 -4 -22 6 -61 12 -89 14 -50 4 -50 4 -20 -11 17 -8 36
-14 43 -15 7 0 10 -5 6 -11 -13 -22 -375 8 -390 32 -3 5 -15 9 -27 9 -19 0
-25 -10 -40 -64z m1113 -16 c5 -19 10 -61 10 -93 0 -103 -43 -126 -270 -147
-216 -19 -580 -9 -728 21 -29 6 -65 21 -80 34 -25 22 -27 28 -26 102 0 43 5
90 12 105 l11 26 43 -16 c37 -15 92 -17 408 -17 367 0 505 10 561 39 29 16 44
2 59 -54z"/>
<path d="M6505 11855 c-14 -13 -25 -34 -25 -47 0 -22 2 -21 31 10 16 17 39 32
50 32 10 0 19 7 19 15 0 24 -48 18 -75 -10z"/>
<path d="M6986 11813 c-3 -3 -6 -21 -6 -38 0 -21 -9 -40 -25 -55 -17 -16 -22
-27 -15 -34 17 -17 61 36 67 81 5 37 -6 61 -21 46z"/>
<path d="M7215 11750 c-43 -17 -68 -58 -73 -115 -4 -53 -3 -56 36 -95 35 -35
45 -40 86 -40 87 0 136 47 136 130 0 50 -22 91 -60 114 -30 17 -92 20 -125 6z
m123 -45 c17 -14 33 -39 37 -55 15 -67 -58 -140 -125 -125 -44 10 -80 58 -80
107 0 86 100 130 168 73z"/>
<path d="M7220 11647 c0 -19 27 -53 36 -45 9 10 -12 58 -26 58 -5 0 -10 -6
-10 -13z"/>
<path d="M7290 11650 c0 -15 31 -60 41 -60 13 0 10 33 -5 53 -15 19 -36 23
-36 7z"/>
<path d="M6645 11725 c-79 -28 -112 -105 -76 -178 66 -136 265 -79 248 70 -9
87 -89 137 -172 108z m118 -55 c39 -43 38 -101 -2 -141 -82 -81 -219 18 -166
121 33 64 118 74 168 20z"/>
<path d="M6655 11629 c-4 -11 -4 -23 -1 -26 8 -9 36 17 36 33 0 22 -28 16 -35
-7z"/>
<path d="M6702 11575 c-16 -34 -15 -45 2 -45 8 0 19 14 25 31 14 40 14 39 -2
39 -8 0 -19 -11 -25 -25z"/>
<path d="M7620 11637 c0 -13 -9 -32 -20 -42 -24 -22 -27 -50 -4 -41 9 3 17 6
20 6 8 0 34 60 34 80 0 11 -7 20 -15 20 -9 0 -15 -9 -15 -23z"/>
<path d="M0 11576 c0 -11 9 -16 26 -16 33 0 64 -16 90 -47 21 -24 22 -24 52
-9 17 9 50 16 73 16 33 0 47 -6 74 -33 41 -41 51 -77 37 -125 -10 -32 -9 -37
14 -54 32 -26 54 -69 54 -108 0 -18 9 -43 20 -57 13 -17 20 -41 20 -69 0 -36
-6 -51 -34 -82 -32 -35 -38 -37 -94 -37 -49 0 -64 -5 -91 -28 -41 -35 -104
-40 -148 -12 -19 13 -24 12 -46 -5 -14 -11 -30 -20 -36 -20 -6 0 -11 -7 -11
-15 0 -20 20 -19 49 1 18 13 28 14 47 5 52 -23 122 -12 167 27 11 10 38 16 71
16 61 1 96 21 133 76 28 41 30 103 4 145 -10 17 -21 52 -25 78 -4 29 -18 59
-34 79 -22 26 -27 42 -27 90 -1 65 -19 97 -75 136 -35 24 -91 29 -135 12 -22
-8 -32 -6 -60 16 -42 32 -115 45 -115 20z"/>
<path d="M11944 11576 c-17 -8 -38 -22 -45 -33 -10 -13 -27 -19 -60 -19 -63
-1 -109 -29 -137 -84 -25 -49 -24 -105 4 -148 13 -19 13 -25 -1 -52 -8 -16
-15 -45 -15 -65 0 -66 29 -111 96 -151 16 -9 14 -16 -27 -73 -35 -50 -48 -61
-64 -56 -78 24 -94 26 -134 15 -61 -16 -119 -81 -179 -198 -95 -184 -181 -302
-378 -517 -154 -169 -180 -219 -134 -260 16 -15 32 -17 92 -12 135 9 369 103
542 218 207 137 385 378 386 522 0 53 -10 79 -46 117 l-23 25 28 34 c27 32 30
33 61 23 45 -16 90 -15 90 2 0 9 -16 15 -46 19 -64 7 -104 47 -111 112 -4 31
-11 48 -22 52 -66 20 -101 64 -101 126 0 22 7 51 16 67 17 28 16 33 -11 80
-47 81 34 189 131 175 36 -5 43 -3 57 19 9 13 32 30 52 37 19 7 35 19 35 26 0
16 -16 16 -56 -1z m-110 -651 l19 -34 -27 -36 -27 -35 -29 22 c-17 12 -30 25
-30 28 0 10 61 90 69 90 3 0 15 -16 25 -35z m-177 -46 c39 -14 167 -114 188
-145 37 -57 8 -169 -76 -290 l-31 -46 -42 41 c-23 23 -45 41 -49 41 -18 0 -3
-28 35 -67 l42 -43 -74 -73 c-76 -74 -150 -129 -252 -186 l-57 -32 -27 40
c-15 23 -30 41 -34 41 -19 0 -17 -16 5 -49 14 -19 25 -38 25 -42 0 -9 -104
-55 -193 -85 -89 -31 -217 -43 -234 -23 -19 24 8 64 148 219 175 194 273 325
349 470 34 66 67 120 72 120 5 0 25 -11 45 -25 33 -22 53 -25 53 -7 0 4 -18
18 -40 32 -22 14 -40 27 -40 30 1 12 28 39 64 64 41 28 78 32 123 15z"/>
<path d="M11340 10377 c0 -13 60 -77 73 -77 17 0 4 29 -26 58 -36 35 -47 39
-47 19z"/>
<path d="M11030 10146 c0 -22 42 -48 55 -35 7 7 2 16 -15 29 -30 23 -40 25
-40 6z"/>
<path d="M8731 11473 c-51 -26 -73 -67 -68 -131 5 -75 44 -114 119 -119 64 -5
106 17 131 70 22 46 21 85 -3 124 -39 64 -116 88 -179 56z m105 -28 c41 -17
69 -71 59 -116 -8 -37 -59 -79 -95 -79 -91 0 -142 96 -89 164 36 46 70 54 125
31z"/>
<path d="M13 11433 c-7 -2 -13 -16 -13 -30 0 -22 1 -23 16 -9 8 9 24 16 35 16
10 0 19 7 19 15 0 15 -31 19 -57 8z"/>
<path d="M11980 11397 c-14 -29 -7 -48 11 -30 6 6 9 21 7 34 l-4 24 -14 -28z"/>
<path d="M7136 11403 c-3 -4 -25 -9 -49 -12 -49 -7 -56 -25 -10 -29 33 -3 93
21 93 38 0 11 -23 13 -34 3z"/>
<path d="M240 11166 c0 -15 -7 -43 -15 -63 -18 -43 -18 -43 0 -43 20 0 34 30
37 80 2 27 -1 44 -9 47 -8 3 -13 -5 -13 -21z"/>
<path d="M11889 11156 c-16 -34 -1 -84 33 -109 40 -30 54 -11 17 24 -27 25
-31 34 -26 64 7 42 -9 56 -24 21z"/>
<path d="M10340 11013 c-23 -9 -60 -45 -76 -75 -43 -82 24 -188 119 -188 108
0 173 116 117 208 -30 48 -106 75 -160 55z m123 -63 c39 -44 37 -92 -7 -136
-43 -43 -90 -46 -135 -8 -38 32 -49 80 -27 123 35 67 118 77 169 21z"/>
<path d="M3733 10570 c-88 -54 -81 -197 12 -236 46 -19 83 -18 124 4 121 65
73 252 -64 252 -22 0 -54 -9 -72 -20z m136 -36 c38 -32 49 -80 27 -123 -35
-67 -122 -78 -170 -20 -38 45 -35 92 8 135 43 43 90 46 135 8z"/>
<path d="M6483 10569 c-72 -46 -82 -145 -20 -206 85 -86 227 -28 227 92 0 106
-118 171 -207 114z m143 -43 c43 -43 46 -90 8 -135 -49 -59 -137 -47 -171 23
-20 42 -11 79 27 117 41 42 91 40 136 -5z"/>
<path d="M1790 10525 c-19 -9 -43 -24 -53 -33 -15 -14 -35 -16 -101 -14 -135
4 -177 -34 -210 -186 -31 -147 -40 -269 -40 -522 -1 -447 41 -607 176 -674 58
-29 95 -32 152 -11 34 12 43 12 67 0 49 -26 100 -28 160 -8 48 16 61 17 90 7
103 -37 219 22 269 137 93 217 85 970 -12 1177 -29 62 -83 85 -182 81 -65 -3
-75 -1 -115 26 -53 36 -145 45 -201 20z m168 -34 c42 -21 73 -59 90 -110 16
-46 17 -1098 1 -1154 -23 -85 -117 -146 -201 -133 -58 9 -113 49 -138 100 -19
41 -20 60 -20 578 0 464 -2 537 -15 548 -13 11 -15 -49 -15 -533 0 -330 4
-556 10 -571 12 -34 -3 -33 -29 0 -37 47 -46 95 -27 150 25 74 21 133 -15 200
-35 67 -34 90 6 176 31 67 33 143 5 195 -26 48 -25 98 1 185 21 69 21 73 6
146 -11 49 -13 80 -7 92 5 9 7 19 5 22 -3 3 1 5 8 5 6 0 20 4 31 8 16 7 17 4
12 -22 -5 -21 -2 -34 9 -43 13 -11 15 -9 15 14 0 52 53 129 105 152 44 19 120
17 163 -5z m-268 -51 c0 -4 -14 -10 -30 -14 -17 -3 -42 -17 -55 -30 -28 -29
-31 -60 -13 -147 10 -51 9 -65 -10 -130 -28 -95 -28 -126 3 -199 14 -33 25
-67 25 -76 0 -8 -13 -46 -30 -84 -39 -89 -41 -159 -6 -211 37 -55 40 -79 17
-161 -21 -75 -20 -103 9 -159 18 -35 61 -79 95 -96 l30 -16 -25 -9 c-14 -5
-44 -8 -68 -5 -168 18 -233 239 -219 751 6 227 15 319 44 441 19 84 27 102 62
135 24 23 33 25 99 22 39 -2 72 -7 72 -12z m525 -2 c77 -35 118 -268 119 -668
1 -377 -27 -524 -114 -611 -32 -32 -59 -50 -84 -54 -38 -8 -106 1 -106 13 1 4
20 16 43 27 86 41 126 145 93 241 -23 67 -20 97 14 161 39 73 39 119 0 201
-35 75 -38 118 -10 172 24 48 27 139 5 200 -18 51 -19 101 -4 168 7 27 9 61 5
76 -8 33 -63 68 -93 61 -16 -4 -23 -1 -23 10 0 12 13 15 65 15 35 0 76 -5 90
-12z m-86 -59 c20 -19 22 -28 17 -63 -18 -118 -18 -144 0 -197 23 -71 24 -148
0 -184 -10 -15 -16 -38 -13 -51 2 -14 0 -21 -6 -17 -18 11 -1 -73 27 -131 34
-71 33 -113 -4 -183 -34 -62 -37 -101 -15 -163 20 -57 19 -103 -4 -149 -20
-38 -48 -68 -56 -59 -3 3 -1 29 5 58 13 68 13 630 0 664 -6 18 -6 26 1 26 8 0
10 71 8 235 -3 161 -1 235 7 235 5 0 21 -10 33 -21z"/>
<path d="M1790 10438 c0 -9 21 -18 58 -26 139 -29 141 -56 12 -127 -101 -55
-134 -90 -114 -122 6 -10 52 -32 102 -49 50 -17 98 -36 106 -43 30 -25 18 -54
-46 -115 -91 -86 -108 -112 -108 -165 0 -43 3 -48 70 -111 92 -85 92 -97 -2
-173 -26 -20 -50 -46 -53 -58 -10 -30 19 -65 74 -94 27 -13 52 -29 55 -34 11
-18 -7 -42 -50 -67 -46 -27 -56 -44 -26 -44 27 0 92 48 103 76 13 36 -2 58
-69 97 -31 18 -58 41 -60 49 -2 10 18 32 51 58 59 44 83 85 73 124 -3 14 -31
47 -62 73 -31 26 -62 60 -70 75 -21 40 -1 78 85 162 73 72 91 109 71 145 -11
22 -78 61 -103 61 -8 0 -37 10 -65 21 -45 19 -51 24 -49 49 1 16 7 26 14 23
12 -5 154 68 186 95 22 19 22 54 -1 75 -38 35 -182 70 -182 45z"/>
<path d="M9192 10225 c-117 -36 -172 -117 -172 -250 0 -203 156 -459 343 -563
28 -16 90 -50 138 -76 47 -26 118 -76 158 -112 48 -42 79 -63 89 -60 12 4 25
-7 45 -39 27 -42 27 -45 13 -74 -44 -84 13 -181 107 -181 38 0 91 36 102 69 4
13 19 20 48 24 75 10 116 89 82 160 -22 47 -59 70 -113 70 -40 0 -46 4 -70 40
-17 25 -27 55 -28 81 0 22 -13 73 -28 111 -16 39 -36 107 -45 153 -14 67 -20
81 -29 69 -19 -23 16 -170 72 -299 l16 -37 -90 -61 -91 -61 -63 58 c-62 56
-88 73 -263 170 -109 61 -181 126 -249 229 -137 206 -153 417 -39 511 47 39
108 56 199 56 189 0 349 -87 410 -222 14 -32 33 -62 42 -65 19 -7 13 16 -26
94 -51 101 -165 181 -298 209 -71 15 -207 13 -260 -4z m750 -1015 c32 -49 34
-50 70 -44 91 14 155 -90 93 -152 -21 -21 -34 -25 -67 -22 -38 2 -42 0 -49
-26 -12 -45 -38 -66 -80 -66 -72 0 -119 100 -69 150 25 25 26 23 -10 74 -16
24 -30 48 -32 54 -3 10 87 80 104 81 5 1 23 -22 40 -49z"/>
<path d="M4901 10065 c-186 -52 -332 -187 -393 -363 -40 -116 -30 -326 19
-426 25 -49 33 -14 11 49 -26 75 -35 228 -18 308 27 134 125 271 241 340 304
180 672 45 799 -292 12 -34 26 -61 31 -61 34 0 -40 171 -114 261 -54 67 -159
141 -242 171 -78 28 -254 35 -334 13z"/>
<path d="M9190 9900 c0 -16 5 -30 10 -30 6 0 10 14 10 30 0 17 -4 30 -10 30
-5 0 -10 -13 -10 -30z"/>
<path d="M5122 9853 c2 -27 8 -48 13 -48 6 0 11 21 13 48 3 38 0 47 -13 47
-13 0 -16 -9 -13 -47z"/>
<path d="M7540 9755 l0 -115 -55 0 c-48 0 -55 3 -55 19 0 45 -9 51 -81 51
l-69 0 0 51 0 52 -72 -7 c-117 -11 -108 1 -108 -144 0 -70 -3 -164 -7 -209 -5
-72 -8 -83 -24 -83 -11 0 -19 -7 -19 -16 0 -8 22 -208 50 -442 54 -460 58
-478 119 -519 33 -22 41 -23 276 -23 235 0 243 1 276 23 61 41 65 59 119 522
27 237 50 436 50 443 0 7 -14 12 -36 12 -36 0 -36 0 -30 38 3 20 6 125 8 232
l3 195 -75 0 -75 0 -3 -170 c-1 -93 -6 -173 -11 -178 -5 -5 -11 43 -15 105 -3
62 -9 150 -12 196 l-6 82 -74 0 -74 0 0 -115z m124 63 c5 -24 36 -607 36 -665
0 -29 -4 -33 -39 -44 -73 -22 -71 -31 -71 266 0 170 -4 265 -10 265 -6 0 -10
40 -10 100 l0 100 45 0 c38 0 45 -3 49 -22z m190 -230 l-7 -223 -27 -30 c-15
-16 -36 -46 -46 -65 l-19 -35 -3 95 c-2 52 0 182 3 288 l7 192 49 0 49 0 -6
-222z m-604 79 c0 -63 3 -196 7 -295 3 -108 2 -182 -3 -182 -5 0 -20 27 -33
61 -18 47 -32 67 -63 87 l-39 27 5 134 c3 74 6 165 6 202 0 75 -2 73 88 78
l32 1 0 -113z m150 -277 l0 -290 -30 0 c-16 0 -40 5 -53 11 -23 10 -24 16 -30
152 -4 78 -7 204 -7 280 l0 137 60 0 60 0 0 -290z m165 -35 l0 -250 -67 -3
-68 -3 0 256 0 256 68 -3 67 -3 0 -250z m-436 -29 c33 -18 51 -44 76 -111 47
-127 82 -145 290 -145 212 0 243 17 295 158 12 34 34 71 47 82 27 21 62 35 69
27 5 -5 -93 -840 -102 -869 -3 -9 -19 -29 -35 -43 l-31 -25 -243 0 -243 0 -31
25 c-16 14 -32 34 -35 43 -5 15 -106 840 -106 863 0 13 17 11 49 -5z"/>
<path d="M7249 8986 c-2 -3 3 -100 11 -217 11 -150 19 -214 28 -217 15 -5 15
10 2 192 -17 237 -21 261 -41 242z"/>
<path d="M7736 8933 c-14 -137 -28 -375 -22 -380 20 -20 31 67 49 396 4 61
-20 47 -27 -16z"/>
<path d="M9789 9829 c5 -18 12 -51 16 -72 9 -54 29 -36 22 20 -3 27 -13 54
-26 66 l-20 21 8 -35z"/>
<path d="M553 9831 c-40 -25 -63 -69 -63 -118 0 -50 18 -82 59 -110 68 -46
156 -21 192 53 27 57 20 103 -25 151 -42 46 -112 56 -163 24z m123 -30 c79
-48 57 -170 -33 -187 -68 -13 -123 35 -123 107 0 22 10 41 34 65 40 40 75 44
122 15z"/>
<path d="M9200 9790 c0 -43 62 -143 111 -179 52 -39 52 -11 0 44 -45 48 -69
86 -85 138 -7 24 -26 22 -26 -3z"/>
<path d="M5265 9697 c-18 -43 -19 -57 -4 -57 16 0 42 71 30 83 -7 7 -15 -1
-26 -26z"/>
<path d="M4657 9683 c-4 -3 -7 -21 -7 -40 0 -23 5 -33 15 -33 11 0 15 11 15
40 0 38 -8 49 -23 33z"/>
<path d="M4957 9608 c-5 -31 6 -58 18 -46 3 3 9 22 12 42 4 28 2 36 -10 36 -9
0 -17 -12 -20 -32z"/>
<path d="M5075 9420 c-275 -98 -508 -183 -518 -189 -64 -40 -21 -181 55 -181
15 0 255 81 534 180 279 99 508 180 510 180 2 0 12 10 24 22 23 26 26 65 6
113 -16 38 -42 55 -83 54 -15 0 -253 -81 -528 -179z m580 119 c20 -38 19 -73
-2 -91 -23 -19 -1006 -368 -1038 -368 -18 0 -31 10 -45 33 -23 37 -25 56 -7
81 16 22 1033 385 1059 378 10 -2 25 -17 33 -33z"/>
<path d="M5676 9382 c-2 -4 -1 -14 5 -22 16 -27 9 -58 -17 -79 -30 -24 -61
-26 -132 -9 -73 16 -104 1 -136 -68 -36 -75 -58 -84 -131 -50 -32 14 -74 26
-95 26 -40 0 -60 -18 -133 -120 -40 -55 -67 -60 -132 -26 -70 37 -86 34 -149
-30 -50 -50 -59 -55 -93 -52 -33 3 -39 7 -43 33 -6 33 -23 40 -28 12 -7 -34 8
-67 32 -73 18 -4 26 -15 31 -40 3 -20 21 -52 39 -72 27 -31 34 -48 39 -100 13
-125 69 -202 147 -202 153 0 722 193 892 303 79 51 93 70 93 131 0 61 -31 131
-85 187 -37 40 -67 125 -61 177 5 43 -27 99 -43 74z m-130 -142 l27 -11 -49
-51 c-80 -82 -216 -198 -259 -221 -36 -20 -54 -22 -175 -20 -130 1 -307 17
-318 28 -8 8 49 65 65 65 8 0 36 -11 63 -25 27 -14 61 -25 76 -25 29 0 71 38
121 113 48 69 68 75 139 42 100 -47 148 -33 186 55 11 24 25 48 31 52 17 11
61 10 93 -2z m158 -12 c14 -52 7 -86 -21 -106 -53 -37 -299 -152 -325 -152
-19 0 255 255 286 266 46 17 53 16 60 -8z m70 -131 c35 -46 66 -117 66 -154 0
-52 -41 -88 -174 -153 -249 -122 -651 -250 -784 -250 -29 0 -45 7 -66 29 -30
32 -56 105 -56 161 l0 37 68 6 c85 6 199 40 431 128 247 93 360 143 423 189
29 21 56 39 60 39 4 1 18 -14 32 -32z m-726 -188 c57 -2 106 -7 108 -11 6 -9
-232 -85 -306 -97 -87 -14 -125 1 -156 61 -34 66 -5 78 144 61 59 -6 153 -13
210 -14z"/>
<path d="M11817 8973 c-13 -3 -16 -9 -10 -21 4 -10 8 -38 8 -63 0 -48 -9 -65
-107 -196 -39 -53 -48 -123 -24 -187 16 -42 16 -45 -5 -81 -27 -46 -29 -113
-5 -150 14 -22 15 -32 7 -57 -19 -53 -13 -112 13 -151 14 -20 22 -44 20 -54
-6 -20 207 -389 252 -438 24 -26 28 -28 32 -12 2 10 -3 24 -11 30 -26 20 -249
407 -243 422 3 8 16 21 30 31 21 13 36 15 83 8 l57 -9 43 -105 c36 -89 42
-100 43 -70 0 20 -14 71 -31 115 l-30 80 30 25 c28 22 41 50 25 50 -3 0 -24
-14 -46 -31 -37 -30 -42 -31 -98 -25 -47 6 -65 3 -86 -10 -25 -17 -27 -17 -44
6 -26 34 -32 76 -16 113 24 58 66 82 210 122 74 20 112 45 70 45 -32 0 -168
-42 -218 -67 -45 -23 -50 -23 -65 -8 -23 23 -21 97 5 132 22 30 81 63 209 115
53 22 81 39 83 51 4 17 2 17 -35 -1 -91 -45 -235 -94 -246 -83 -15 15 -21 114
-8 139 6 12 36 55 65 96 62 87 81 133 73 183 l-6 36 79 -5 c59 -3 80 -1 80 7
0 7 -10 15 -22 19 -26 7 -134 6 -161 -1z"/>
<path d="M0 8955 c0 -8 12 -21 28 -29 34 -18 75 -62 96 -103 14 -28 14 -36 1
-74 -23 -63 -52 -106 -91 -129 -18 -12 -34 -28 -34 -36 0 -20 9 -17 55 14 29
20 49 46 75 99 19 40 41 73 48 73 24 0 90 -39 116 -70 34 -41 34 -94 2 -159
-42 -82 -111 -127 -251 -162 -26 -7 -45 -17 -45 -25 0 -18 0 -18 84 7 119 36
169 67 226 142 7 10 21 41 30 70 l18 52 44 -47 c82 -87 124 -195 109 -283 l-6
-39 -51 3 c-45 2 -55 -1 -92 -32 -40 -34 -44 -35 -102 -30 -59 6 -62 5 -94
-26 -33 -32 -35 -33 -100 -26 -60 7 -66 6 -66 -11 0 -16 8 -19 55 -20 30 0 57
-3 60 -6 3 -3 26 -70 50 -148 24 -78 47 -145 50 -148 3 -3 9 -1 14 4 5 5 -11
71 -36 152 l-45 144 28 29 c23 24 36 29 75 29 53 0 63 -8 78 -67 11 -40 20
-51 33 -37 3 3 -1 26 -9 52 l-14 47 35 33 c28 25 44 32 76 32 32 0 42 -4 50
-22 9 -23 50 -376 50 -432 0 -32 -43 -96 -64 -96 -12 0 -42 95 -83 259 -9 37
-33 55 -33 25 0 -13 45 -187 76 -297 4 -14 -9 -24 -61 -48 -37 -18 -70 -28
-74 -23 -4 5 -15 35 -25 67 -10 35 -23 57 -32 57 -17 0 -18 4 6 -66 11 -32 18
-64 16 -71 -4 -10 -55 -21 -120 -27 -15 -1 -31 32 -87 174 -58 150 -68 169
-69 135 0 -26 17 -82 44 -150 63 -158 62 -155 32 -155 -13 0 -36 4 -50 10 -21
8 -26 6 -26 -5 0 -9 12 -20 27 -26 35 -13 155 -13 215 0 134 30 271 105 316
173 l25 39 -23 207 c-12 114 -23 266 -24 337 -1 123 -3 133 -30 190 -18 36
-55 85 -96 125 -36 36 -74 79 -84 96 -22 37 -87 81 -131 90 -24 4 -34 13 -43
38 -15 41 -65 92 -114 117 -32 16 -38 17 -38 4z"/>
<path d="M11936 8831 c-8 -12 3 -41 15 -41 5 0 9 11 9 25 0 25 -14 34 -24 16z"/>
<path d="M11820 8644 c0 -11 8 -14 32 -12 46 4 49 28 4 28 -26 0 -36 -4 -36
-16z"/>
<path d="M172 8579 c1 -12 9 -24 16 -27 9 -3 13 3 10 19 -1 12 -9 24 -16 27
-9 3 -13 -3 -10 -19z"/>
<path d="M11870 8452 c0 -12 23 -32 37 -32 18 0 16 27 -3 34 -21 8 -34 8 -34
-2z"/>
<path d="M354 8425 c-3 -8 -3 -19 1 -25 11 -18 25 -11 25 15 0 27 -17 34 -26
10z"/>
<path d="M2945 8374 c-414 -92 -717 -380 -827 -788 -31 -112 -33 -404 -4 -511
24 -92 74 -221 89 -233 8 -6 154 60 465 210 249 121 456 217 460 214 5 -5 109
-933 111 -993 2 -32 199 6 343 67 155 64 344 216 444 355 227 319 266 731 100
1081 -61 128 -116 205 -217 306 -134 133 -276 217 -465 274 -78 23 -110 27
-259 30 -128 3 -187 0 -240 -12z m421 -28 c468 -99 806 -494 831 -972 18 -341
-135 -669 -410 -881 -116 -90 -285 -166 -429 -193 -87 -16 -98 -11 -98 39 0
34 4 41 23 45 155 32 257 67 349 121 243 142 414 391 458 669 19 116 8 301
-24 409 -52 173 -133 305 -268 433 -261 246 -651 320 -987 188 -224 -89 -401
-256 -506 -476 -109 -230 -122 -472 -39 -717 20 -56 34 -104 32 -106 -15 -13
-70 -35 -78 -30 -15 9 -67 156 -85 240 -23 103 -23 312 -1 411 71 328 272 588
561 730 174 85 319 116 501 109 55 -3 132 -11 170 -19z m37 -140 c336 -99 582
-363 651 -698 20 -96 21 -275 2 -365 -39 -185 -113 -319 -251 -459 -108 -109
-192 -165 -317 -214 -82 -32 -219 -63 -230 -52 -6 6 -98 829 -98 876 0 9 -6
16 -13 16 -8 0 -190 -85 -406 -190 -216 -104 -397 -190 -402 -190 -13 0 -46
79 -69 168 -44 166 -36 344 21 517 105 316 371 547 704 611 110 21 299 12 408
-20z"/>
<path d="M2986 8090 c-52 -16 -96 -75 -96 -131 0 -36 32 -90 64 -110 66 -40
157 -14 189 54 22 46 21 85 -3 124 -33 55 -95 80 -154 63z m117 -60 c60 -67
14 -170 -78 -170 -87 0 -136 98 -84 164 44 55 115 58 162 6z"/>
<path d="M2960 7990 c0 -15 22 -60 30 -60 16 0 18 15 4 41 -14 28 -34 39 -34
19z"/>
<path d="M3042 7964 c2 -15 9 -29 16 -32 10 -3 13 4 10 24 -2 15 -9 29 -16 32
-10 3 -13 -4 -10 -24z"/>
<path d="M3306 7981 c-4 -5 -4 -22 0 -36 4 -15 1 -37 -6 -51 -19 -34 -2 -44
22 -14 15 18 18 33 14 59 -6 39 -20 58 -30 42z"/>
<path d="M3482 7876 c-35 -33 -37 -38 -37 -95 0 -55 3 -64 32 -92 63 -64 181
-45 214 33 27 65 4 145 -51 173 -16 8 -50 15 -75 15 -38 0 -52 -6 -83 -34z
m134 -1 c41 -17 69 -72 59 -114 -20 -80 -118 -109 -176 -52 -37 37 -40 94 -8
135 36 46 70 54 125 31z"/>
<path d="M3500 7815 c0 -14 32 -65 40 -65 13 0 13 13 -2 45 -10 21 -38 36 -38
20z"/>
<path d="M3586 7802 c-9 -15 6 -52 20 -52 16 0 16 5 8 38 -6 22 -19 29 -28 14z"/>
<path d="M2575 7826 c-19 -29 -32 -96 -18 -96 6 0 18 20 27 45 10 25 22 45 27
45 5 0 9 7 9 15 0 23 -28 18 -45 -9z"/>
<path d="M2905 7701 c-12 -37 35 -111 69 -111 13 0 4 21 -19 44 -16 16 -25 36
-25 56 0 34 -15 40 -25 11z"/>
<path d="M2576 7619 c-103 -81 -50 -239 80 -239 120 0 175 141 89 227 -29 29
-39 33 -88 33 -40 0 -61 -5 -81 -21z m119 -13 c35 -15 65 -59 65 -96 0 -29
-27 -77 -49 -90 -11 -5 -36 -10 -56 -10 -47 0 -71 13 -90 50 -31 60 -11 120
49 146 39 17 40 17 81 0z"/>
<path d="M2640 7542 c0 -5 12 -14 26 -21 32 -14 54 -3 29 16 -21 14 -55 18
-55 5z"/>
<path d="M2590 7481 c0 -5 7 -12 16 -15 28 -11 54 -6 54 9 0 10 -11 15 -35 15
-19 0 -35 -4 -35 -9z"/>
<path d="M3254 7551 c-45 -28 -64 -59 -64 -109 0 -84 50 -136 130 -136 78 0
130 53 130 131 0 50 -18 82 -59 110 -42 28 -95 30 -137 4z m125 -27 c13 -9 29
-32 37 -50 27 -65 -26 -144 -96 -144 -67 0 -121 72 -100 136 22 66 104 96 159
58z"/>
<path d="M3250 7470 c0 -6 7 -25 16 -42 10 -20 19 -27 26 -20 6 6 4 20 -6 41
-16 30 -36 42 -36 21z"/>
<path d="M3330 7447 c0 -20 26 -52 33 -40 10 15 -4 53 -19 53 -8 0 -14 -6 -14
-13z"/>
<path d="M3786 7501 c-4 -6 -2 -20 5 -32 11 -21 9 -58 -6 -91 -5 -13 -3 -18 9
-18 22 0 39 47 32 89 -6 39 -30 69 -40 52z"/>
<path d="M2380 7293 c0 -29 7 -46 24 -62 28 -27 47 -10 21 19 -9 10 -17 30
-19 46 -5 44 -26 42 -26 -3z"/>
<path d="M3392 7154 c-33 -33 -29 -51 7 -39 23 7 54 52 46 65 -9 14 -16 11
-53 -26z"/>
<path d="M3651 7153 c-43 -22 -71 -68 -71 -118 0 -103 111 -168 197 -115 45
27 66 64 66 115 0 99 -104 163 -192 118z m103 -23 c68 -26 83 -122 26 -172
-67 -61 -170 -15 -170 77 0 78 70 124 144 95z"/>
<path d="M3646 7072 c-8 -13 20 -72 34 -72 16 0 11 36 -8 61 -13 15 -21 18
-26 11z"/>
<path d="M3725 7038 c15 -48 43 -51 31 -3 -4 14 -13 25 -22 25 -11 0 -14 -6
-9 -22z"/>
<path d="M3407 6893 c-20 -20 2 -93 28 -93 17 0 20 16 5 25 -5 3 -10 16 -10
28 0 26 -14 50 -23 40z"/>
<path d="M110 8277 c0 -19 26 -40 40 -32 13 8 5 22 -21 35 -15 8 -19 7 -19 -3z"/>
<path d="M11846 8215 c-10 -26 -7 -35 9 -35 8 0 15 7 15 15 0 8 0 18 1 22 1
15 -19 13 -25 -2z"/>
<path d="M6206 7997 c-27 -7 -51 -17 -53 -24 -3 -7 26 -81 62 -165 37 -84 71
-163 75 -174 7 -19 0 -28 -60 -68 -69 -48 -113 -100 -124 -149 -5 -21 3 -48
30 -105 20 -42 105 -237 188 -432 150 -353 151 -355 192 -378 63 -34 144 -46
221 -32 96 16 165 46 217 91 70 62 79 85 71 186 -7 76 -9 83 -24 70 -9 -8 -22
-12 -28 -10 -7 3 -13 -1 -13 -7 0 -7 9 -14 20 -17 17 -5 20 -14 20 -69 0 -61
-2 -67 -40 -108 -69 -75 -226 -128 -331 -112 -26 4 -66 17 -90 29 -40 20 -46
30 -85 122 -23 55 -42 101 -41 102 1 0 36 -10 76 -24 120 -40 313 -30 411 22
41 22 1 29 -55 10 -140 -47 -282 -41 -398 18 l-62 32 -62 149 c-35 82 -61 151
-59 153 2 3 44 -5 93 -18 181 -46 385 -27 549 52 73 34 74 34 74 10 0 -10 6
-21 14 -24 12 -5 14 29 9 226 -6 268 -5 265 -97 311 -52 26 -71 30 -171 34
-82 3 -135 0 -196 -13 -46 -10 -90 -18 -98 -19 -9 -1 -41 59 -90 172 -42 94
-80 172 -86 171 -5 0 -32 -6 -59 -12z m160 -267 c67 -153 114 -250 122 -250
10 0 12 7 8 25 -5 21 -3 25 18 25 13 0 34 -8 46 -18 19 -15 21 -22 12 -39 -30
-56 -207 -92 -248 -51 -16 16 -16 18 1 44 17 26 19 26 31 9 7 -10 15 -23 17
-29 3 -8 8 -8 16 0 8 7 -9 56 -65 185 -42 96 -91 209 -110 251 l-33 78 32 9
c18 5 35 10 38 10 4 1 55 -111 115 -249z m492 -75 c74 -22 112 -57 112 -104 0
-165 -446 -333 -705 -266 -140 37 -170 114 -82 205 31 32 114 90 128 90 4 0
12 -12 17 -27 8 -23 6 -32 -13 -53 -51 -56 -34 -103 42 -120 119 -27 283 66
244 138 -12 22 -60 42 -102 42 -23 0 -32 7 -43 33 -7 17 -10 35 -7 39 30 34
319 49 409 23z m115 -322 c7 -126 7 -126 -91 -171 -178 -82 -360 -92 -570 -30
l-74 21 -24 55 c-13 30 -22 57 -19 60 2 3 26 -1 52 -9 75 -22 260 -17 368 10
101 24 252 94 305 140 19 17 38 30 41 31 3 0 9 -48 12 -107z"/>
<path d="M10699 7967 c-42 -28 -59 -60 -59 -112 0 -103 111 -168 197 -115 64
38 88 111 58 174 -35 73 -129 98 -196 53z m134 -27 c60 -47 53 -141 -13 -175
-90 -46 -185 55 -136 144 28 51 104 67 149 31z"/>
<path d="M8060 7552 c-133 -67 -88 -252 63 -252 40 0 53 5 83 33 31 28 37 42
41 84 7 67 -20 114 -77 137 -51 20 -67 20 -110 -2z m94 -26 c78 -32 89 -124
22 -178 -50 -41 -146 -5 -161 61 -9 44 18 99 57 116 41 18 42 18 82 1z"/>
<path d="M8995 7501 c-3 -7 8 -28 25 -48 41 -46 60 -92 60 -140 0 -50 -7 -58
-63 -72 -142 -35 -261 -105 -305 -179 -24 -42 -27 -56 -24 -126 5 -168 46
-356 104 -469 82 -164 248 -248 493 -249 170 -1 277 33 365 117 36 34 55 44
93 49 173 22 327 128 372 257 32 89 10 211 -46 265 -26 25 -38 29 -82 28 -30
0 -72 -9 -99 -22 l-48 -21 0 60 c0 40 -7 73 -20 98 -51 100 -215 184 -408 209
-55 7 -57 9 -54 35 2 16 -4 52 -12 81 -17 59 -83 143 -99 127 -6 -6 2 -23 25
-50 50 -58 77 -166 46 -176 -7 -2 -56 -6 -109 -8 l-96 -5 -6 57 c-2 32 -14 75
-25 97 -25 49 -77 100 -87 85z m315 -273 c0 -11 -64 -104 -98 -144 -6 -6 -36
-14 -69 -17 -32 -3 -77 -13 -101 -21 -36 -13 -44 -13 -48 -1 -7 16 7 43 51
101 19 24 36 52 40 63 7 22 30 27 148 29 56 2 77 -1 77 -10z m207 -19 c176
-44 293 -139 293 -237 0 -28 -8 -57 -21 -78 l-21 -34 -52 52 c-88 90 -206 140
-379 162 l-89 11 32 40 c18 22 41 57 51 77 19 37 20 38 67 31 26 -3 79 -14
119 -24z m-467 -1 c0 -7 -16 -33 -36 -58 -19 -24 -40 -64 -47 -88 -10 -37 -19
-48 -69 -78 -31 -19 -75 -55 -97 -80 l-39 -45 -21 27 c-49 63 -36 138 38 207
57 53 92 73 186 103 83 27 85 28 85 12z m163 -188 c4 -16 14 -42 24 -56 20
-31 89 -84 110 -84 25 0 13 19 -32 50 -45 31 -75 74 -75 106 0 15 9 16 78 10
103 -9 153 -22 239 -61 77 -36 173 -116 173 -146 0 -25 -138 -93 -237 -116
-116 -27 -369 -24 -477 5 -89 25 -169 59 -206 89 l-24 21 27 35 c14 19 55 54
89 77 l63 42 26 -31 c31 -38 88 -81 106 -81 20 0 15 28 -6 35 -25 8 -93 74
-86 85 4 7 106 34 165 43 14 3 28 5 31 6 4 0 9 -12 12 -29z m826 -126 c61 -43
80 -178 37 -269 -42 -91 -146 -166 -279 -201 -29 -8 -60 -14 -70 -14 -16 0
-16 2 -2 30 9 17 28 35 43 41 104 39 180 96 213 160 22 43 26 138 7 157 -16
16 -67 15 -116 -2 -22 -8 -42 -13 -44 -10 -3 2 -2 18 0 35 4 27 13 35 66 60
69 33 111 36 145 13z m-1245 -98 c127 -87 256 -120 471 -120 215 0 363 40 478
128 27 21 52 35 55 32 7 -8 -32 -208 -54 -272 -31 -93 -76 -174 -123 -217
-158 -148 -552 -136 -724 22 -24 23 -58 67 -75 99 -35 65 -76 200 -87 282 -3
30 -9 63 -11 73 -7 24 -2 22 70 -27z m1180 -41 c10 -40 -12 -102 -49 -144 -34
-37 -151 -108 -162 -98 -3 3 2 27 11 54 9 26 22 77 29 113 13 64 14 65 57 82
25 9 59 17 76 17 26 1 33 -4 38 -24z"/>
<path d="M9470 6927 c0 -7 9 -18 20 -25 29 -18 25 -49 -8 -66 -55 -29 -200
-49 -307 -43 -55 3 -110 9 -122 13 -17 5 -23 2 -23 -9 0 -23 125 -41 235 -33
174 12 268 48 273 103 2 24 -3 36 -24 52 -30 24 -44 27 -44 8z"/>
<path d="M4756 7230 c-41 -13 -75 -48 -88 -92 -9 -31 -8 -45 6 -82 24 -63 69
-90 139 -83 42 4 56 10 84 41 28 30 33 43 33 83 0 60 -29 109 -75 129 -38 16
-56 16 -99 4z m127 -72 c67 -89 -58 -207 -146 -138 -62 49 -52 146 18 176 20
8 33 19 30 24 -13 20 80 -38 98 -62z"/>
<path d="M2588 6932 c-310 -151 -467 -232 -468 -242 0 -31 122 -203 198 -279
134 -133 304 -231 490 -282 83 -22 357 -39 371 -23 11 12 -101 1047 -114 1050
-5 1 -220 -100 -477 -224z m508 -234 c24 -227 44 -422 44 -432 0 -18 -6 -19
-107 -13 -303 18 -557 163 -726 417 -20 30 -37 59 -37 65 0 10 772 387 778
380 2 -2 23 -189 48 -417z m-813 -45 c164 -254 441 -412 754 -430 l111 -6 4
-43 c3 -43 2 -44 -30 -50 -46 -9 -221 11 -317 36 -175 45 -395 181 -509 315
-60 70 -136 182 -136 200 0 14 45 44 67 45 7 0 32 -30 56 -67z"/>
<path d="M2823 6936 c-99 -45 -95 -194 5 -238 140 -62 254 110 143 216 -36 34
-100 43 -148 22z m127 -43 c75 -68 27 -183 -77 -183 -15 0 -38 13 -59 34 -27
27 -34 42 -34 73 1 90 103 136 170 76z"/>
<path d="M2817 6854 c-7 -8 24 -74 35 -74 11 0 10 25 -4 55 -11 25 -19 30 -31
19z"/>
<path d="M2895 6818 c15 -48 43 -51 31 -3 -4 14 -13 25 -22 25 -11 0 -14 -6
-9 -22z"/>
<path d="M2519 6727 c-65 -44 -75 -137 -21 -198 50 -55 144 -55 194 0 78 87
19 221 -97 221 -27 0 -54 -8 -76 -23z m132 -17 c47 -26 63 -110 29 -153 -56
-71 -170 -46 -186 40 -7 40 10 88 40 108 24 17 89 20 117 5z"/>
<path d="M2544 6666 c-8 -21 -1 -61 11 -61 6 0 11 17 13 38 3 37 -13 52 -24
23z"/>
<path d="M2606 6608 c-3 -13 -1 -27 4 -32 12 -12 17 -7 25 27 5 20 4 27 -8 27
-8 0 -17 -10 -21 -22z"/>
<path d="M2945 6500 c-10 -11 -33 -25 -51 -32 -42 -15 -44 -28 -5 -28 32 0 91
43 91 66 0 20 -14 17 -35 -6z"/>
<path d="M6983 7046 c4 -10 7 -50 7 -89 0 -66 1 -70 17 -55 14 15 15 27 7 84
-6 43 -14 69 -23 72 -10 3 -12 0 -8 -12z"/>
<path d="M6656 6972 c-10 -17 55 -85 68 -72 7 7 0 21 -26 46 -21 21 -38 32
-42 26z"/>
<path d="M6790 6976 c0 -3 14 -18 30 -34 34 -35 40 -27 9 12 -18 23 -39 35
-39 22z"/>
<path d="M6550 6947 c0 -17 38 -52 47 -44 9 10 -18 57 -34 57 -7 0 -13 -6 -13
-13z"/>
<path d="M8641 6411 c-143 -143 42 -300 411 -351 46 -7 151 -12 233 -12 83 0
187 5 233 12 278 38 462 138 462 249 0 40 -26 91 -45 91 -19 0 -19 -11 0 -36
37 -49 9 -114 -73 -168 -270 -178 -995 -158 -1193 33 -35 34 -49 55 -49 75 0
37 22 77 59 104 17 12 31 27 31 32 0 22 -32 8 -69 -29z"/>
<path d="M1430 5863 c-52 -36 -74 -91 -59 -147 28 -101 139 -137 219 -70 65
55 58 169 -14 214 -41 25 -112 27 -146 3z m129 -29 c30 -21 51 -71 44 -106 -3
-14 -18 -39 -34 -54 -66 -64 -169 -16 -169 77 0 80 93 129 159 83z"/>
<path d="M11810 5609 c-23 -74 -51 -162 -61 -196 -17 -55 -23 -63 -44 -63 -14
0 -25 -2 -25 -4 0 -3 -31 -201 -70 -440 -38 -240 -70 -446 -70 -458 0 -30 33
-83 63 -103 24 -15 358 -115 385 -115 8 0 12 6 10 12 -3 7 -87 36 -189 64
-160 46 -187 56 -211 83 -16 18 -28 43 -28 59 0 32 130 855 137 862 8 8 38
-16 61 -50 15 -22 22 -48 22 -79 0 -114 47 -180 148 -210 45 -14 62 -16 62 -7
0 7 -5 17 -11 23 -9 9 -9 23 0 55 7 24 11 64 9 88 -3 44 -3 44 -27 -42 -13
-49 -28 -88 -33 -88 -15 0 -64 28 -77 44 -10 12 0 61 54 263 36 136 70 256 75
265 12 21 13 145 3 151 -5 3 -38 8 -74 12 l-67 7 -42 -133z m178 87 c5 -6
-153 -576 -160 -576 -4 0 -8 19 -8 43 0 59 -16 110 -44 140 l-24 26 34 108
c19 59 46 146 60 192 l26 83 56 -7 c32 -4 58 -8 60 -9z"/>
<path d="M1 5678 c0 -33 2 -38 9 -23 12 28 12 65 0 65 -5 0 -10 -19 -9 -42z"/>
<path d="M292 5683 c-5 -10 -19 -56 -32 -103 -13 -47 -26 -89 -30 -93 -4 -5
-29 -2 -56 6 -51 15 -50 14 -41 71 2 10 -43 28 -100 41 -26 5 -33 3 -33 -8 0
-10 14 -18 38 -22 72 -12 72 -5 14 -208 -37 -128 -52 -198 -50 -228 3 -39 9
-23 52 131 27 96 53 183 57 192 8 15 13 15 71 -1 44 -11 62 -21 61 -31 -5 -26
-132 -472 -136 -476 -2 -3 -15 -1 -28 4 -53 20 -79 23 -79 9 0 -14 23 -23 134
-51 99 -26 157 0 227 101 17 24 43 50 59 58 31 16 80 20 80 7 0 -5 -74 -186
-165 -403 -121 -289 -172 -400 -192 -418 -24 -21 -34 -23 -85 -18 -43 4 -58 2
-58 -8 0 -26 94 -34 138 -11 15 8 34 22 43 32 24 28 362 841 354 854 -3 5 -17
10 -31 10 -13 0 -24 3 -24 8 0 4 31 103 70 221 38 118 67 218 65 221 -8 13
-136 43 -144 34 -8 -9 -52 -147 -86 -269 -17 -59 -43 -106 -31 -55 4 14 22 97
41 185 20 88 38 168 41 177 4 14 -7 20 -53 34 -32 9 -63 19 -70 21 -6 3 -16
-4 -21 -14z m102 -74 c-1 -36 -141 -659 -150 -669 -8 -8 -91 -6 -100 2 -4 4
25 121 65 259 49 171 69 255 62 263 -7 8 -1 43 16 107 l26 96 41 -12 c38 -11
41 -15 40 -46z m159 -46 c15 -3 27 -10 27 -16 0 -5 -30 -104 -67 -219 -65
-202 -68 -209 -100 -225 -19 -8 -42 -27 -53 -41 -11 -14 -23 -22 -26 -19 -3 3
24 105 60 226 36 122 66 225 66 230 0 5 7 25 16 46 11 28 19 35 32 30 9 -3 29
-9 45 -12z"/>
<path d="M6101 5610 c-38 -26 -53 -30 -110 -30 -36 0 -104 9 -151 20 -113 26
-164 25 -225 -4 -96 -45 -122 -88 -136 -219 -12 -116 -12 -115 -62 -216 l-42
-84 0 -146 c0 -133 3 -151 25 -206 28 -68 76 -107 176 -144 132 -50 252 -46
382 13 76 34 84 36 193 36 237 0 354 59 409 206 41 110 44 322 7 445 -30 97
-148 240 -260 314 -81 54 -144 58 -206 15z m159 -21 c77 -39 190 -150 242
-239 48 -81 62 -147 62 -290 1 -146 -24 -234 -84 -303 -63 -71 -120 -88 -310
-96 -149 -6 -158 -8 -222 -39 -124 -61 -231 -65 -369 -13 -98 37 -135 71 -157
143 -47 151 -37 286 28 411 33 64 43 95 51 165 15 140 18 151 52 189 66 75
138 87 297 52 126 -27 214 -23 261 12 62 47 69 47 149 8z"/>
<path d="M5861 5333 c-138 -49 -202 -230 -126 -358 133 -229 486 -118 462 145
-15 167 -176 269 -336 213z m190 -40 c35 -19 64 -43 84 -71 27 -39 30 -51 30
-121 0 -68 -3 -83 -28 -119 -15 -23 -46 -54 -69 -69 -36 -25 -51 -28 -119 -28
-70 0 -82 3 -121 30 -137 95 -126 301 21 377 71 37 129 37 202 1z"/>
<path d="M5894 5246 c-10 -8 -16 -18 -12 -22 10 -9 58 12 58 26 0 14 -23 12
-46 -4z"/>
<path d="M5822 5175 c-16 -36 -15 -97 3 -121 16 -21 16 -21 19 56 1 30 5 63
10 73 6 12 4 17 -6 17 -8 0 -20 -11 -26 -25z"/>
<path d="M7555 5272 c-126 -60 -84 -252 54 -252 109 0 176 108 121 197 -39 65
-108 86 -175 55z m100 -26 c70 -30 83 -120 24 -170 -69 -58 -169 -10 -169 81
0 37 25 72 64 89 39 17 40 17 81 0z"/>
<path d="M2433 5179 c-45 -9 -80 -34 -98 -69 -13 -26 -21 -30 -56 -30 -53 0
-104 -24 -131 -63 -28 -40 -35 -114 -14 -159 15 -30 15 -38 2 -62 -15 -30 -20
-234 -6 -270 13 -36 61 -75 104 -87 34 -9 50 -9 88 5 35 12 53 14 67 6 36 -19
115 -12 153 14 29 19 44 23 86 18 42 -4 59 0 98 22 l47 26 33 -21 c39 -24 39
-26 19 -65 -38 -73 -7 -151 103 -256 140 -133 258 -196 469 -249 132 -33 228
-45 263 -31 22 8 17 11 -40 18 -71 10 -68 6 -54 82 10 48 -13 40 -27 -10 -7
-24 -16 -47 -19 -51 -10 -11 -189 34 -282 71 -61 25 -143 68 -166 88 -2 1 8
22 22 47 14 24 26 51 26 60 0 32 -20 17 -45 -33 -14 -27 -29 -50 -34 -50 -18
0 -163 144 -182 181 -33 65 -26 97 40 196 60 90 112 133 161 133 24 0 120 -39
120 -49 0 -4 -13 -22 -30 -41 -33 -39 -36 -50 -16 -50 8 0 28 17 44 37 l30 38
113 -110 c117 -113 246 -207 421 -308 81 -47 99 -53 109 -41 6 8 7 14 2 14
-16 0 -276 160 -353 218 -41 30 -124 103 -185 162 -123 118 -182 154 -257 154
-38 0 -58 -7 -94 -32 l-45 -33 -59 43 c-54 39 -75 68 -51 68 15 0 49 63 52 95
4 61 -2 85 -30 118 -25 28 -29 39 -24 74 15 116 -90 206 -198 169 -32 -11 -48
-12 -63 -4 -33 18 -79 25 -113 17z m92 -39 c37 -19 40 -19 85 -3 42 15 51 15
86 2 65 -25 107 -118 75 -169 -7 -10 0 -24 24 -51 43 -48 53 -95 30 -142 -9
-20 -28 -43 -41 -52 -22 -14 -23 -20 -17 -75 6 -59 6 -60 -34 -100 -35 -34
-47 -40 -82 -40 -23 0 -50 4 -60 10 -14 7 -23 4 -37 -12 -42 -47 -118 -57
-167 -23 -15 10 -24 9 -55 -7 -54 -28 -108 -19 -149 25 l-32 35 1 114 c0 90 3
119 18 144 17 31 17 33 -1 60 -21 33 -25 91 -7 129 19 42 72 68 126 62 47 -5
47 -5 67 36 21 42 71 77 110 77 12 0 38 -9 60 -20z m333 -531 c23 -17 42 -34
42 -38 0 -5 -20 -39 -36 -60 -2 -2 -37 19 -72 45 -7 5 10 84 17 84 4 0 26 -14
49 -31z"/>
<path d="M2438 5023 c-10 -2 -18 -11 -18 -20 0 -11 6 -14 22 -10 12 4 34 -1
49 -10 35 -21 50 -9 23 16 -22 21 -51 31 -76 24z"/>
<path d="M2645 4811 c-4 -7 -2 -18 4 -24 16 -16 14 -69 -4 -94 -11 -16 -12
-24 -3 -29 19 -12 48 34 48 76 0 42 -31 92 -45 71z"/>
<path d="M2310 4705 c0 -40 59 -113 80 -100 8 5 4 16 -14 34 -13 14 -29 38
-35 54 -11 29 -31 37 -31 12z"/>
<path d="M10614 5036 c-95 -42 -110 -176 -25 -233 60 -41 71 -22 17 28 -19 17
-38 44 -41 59 -16 73 60 143 130 120 19 -6 37 -16 40 -21 4 -5 15 -9 26 -9 33
0 6 35 -41 54 -48 19 -65 19 -106 2z"/>
<path d="M4523 4994 c-68 -34 -93 -126 -53 -191 11 -18 24 -33 28 -33 19 0 20
14 1 43 -28 47 -25 93 10 127 40 41 72 46 123 22 45 -23 67 -20 46 5 -16 20
-70 43 -100 43 -13 0 -38 -8 -55 -16z"/>
<path d="M11765 4918 c-6 -17 -85 -396 -85 -409 0 -5 6 -9 13 -9 8 0 27 70 55
203 46 220 47 227 32 227 -6 0 -13 -6 -15 -12z"/>
<path d="M10767 4890 c-7 -30 -30 -59 -63 -78 -14 -8 -16 -14 -8 -22 15 -15
103 76 104 108 0 33 -27 27 -33 -8z"/>
<path d="M4697 4868 c-19 -41 -22 -78 -8 -78 13 0 33 65 28 92 -3 20 -5 19
-20 -14z"/>
<path d="M197 4668 c-84 -232 -100 -279 -93 -285 13 -13 26 15 92 197 36 102
69 191 71 198 3 6 -2 12 -10 12 -10 0 -30 -40 -60 -122z"/>
<path d="M4593 4772 c-46 -5 -45 -32 1 -32 19 0 37 4 40 8 10 16 -10 27 -41
24z"/>
<path d="M3389 4189 c-14 -28 -17 -45 -11 -51 7 -7 17 3 31 30 23 45 26 62 11
62 -5 0 -19 -19 -31 -41z"/>
<path d="M10530 4218 c-1 -17 -71 -361 -75 -368 -3 -5 -21 -6 -39 -3 -19 3
-81 0 -138 -7 -254 -29 -399 -134 -348 -252 6 -13 44 -209 86 -437 41 -227 80
-421 86 -430 21 -35 104 -81 173 -97 125 -29 270 0 349 69 l37 32 79 425 c43
234 82 439 88 455 25 82 -34 144 -199 209 l-36 14 37 191 c20 105 34 193 32
196 -5 5 -132 7 -132 3z m100 -40 c0 -7 -23 -128 -50 -268 -27 -140 -50 -258
-50 -262 0 -19 29 -6 32 14 4 27 19 32 43 14 16 -12 18 -19 9 -33 -18 -30 -65
-47 -134 -47 -107 0 -165 48 -108 88 32 22 58 20 58 -4 0 -25 17 -26 24 -2 6
22 96 490 96 503 0 5 18 9 40 9 25 0 40 -5 40 -12z m-185 -370 c3 -7 1 -26 -3
-42 -6 -21 -18 -31 -45 -41 -69 -23 -91 -59 -67 -104 24 -45 180 -68 255 -37
47 20 71 59 57 92 -7 13 -23 29 -37 36 -18 8 -25 19 -25 40 0 16 6 31 13 34
24 9 124 -36 168 -75 57 -50 59 -94 10 -145 -144 -149 -628 -153 -782 -7 -45
44 -52 91 -20 133 41 51 179 107 301 121 84 9 171 7 175 -5z m-280 -364 c104
-27 332 -25 439 4 44 12 98 33 121 47 23 13 45 22 47 19 3 -2 0 -30 -6 -62
-11 -54 -14 -59 -65 -89 -142 -85 -306 -129 -455 -121 -116 7 -215 34 -227 62
-8 20 -39 181 -39 204 0 8 23 1 58 -17 31 -15 89 -37 127 -47z m549 -271 c-30
-169 -41 -187 -143 -241 -99 -53 -160 -65 -290 -59 -64 3 -133 11 -153 18 -42
14 -36 -3 -79 232 -12 65 -19 120 -17 123 3 2 34 -3 69 -13 45 -12 100 -17
184 -16 144 0 237 22 364 86 57 29 87 39 89 31 2 -7 -9 -79 -24 -161z m-59
-326 c-22 -113 -26 -121 -76 -152 -128 -81 -353 -66 -438 30 -20 23 -30 48
-35 85 -4 29 -6 54 -4 55 2 2 32 -3 68 -12 46 -11 96 -14 170 -10 120 6 198
29 276 81 27 19 51 29 53 24 2 -5 -5 -51 -14 -101z"/>
<path d="M10466 3119 c-9 -13 -16 -29 -16 -36 0 -23 26 -14 39 14 16 35 -1 52
-23 22z"/>
<path d="M10350 3090 c-14 -28 -18 -46 -12 -52 7 -7 18 4 32 32 14 28 18 46
12 52 -7 7 -18 -4 -32 -32z"/>
<path d="M10226 3079 c-18 -26 -21 -59 -6 -59 5 0 17 14 26 31 20 40 4 62 -20
28z"/>
<path d="M8024 4152 c-188 -137 -555 -731 -605 -977 -16 -80 0 -157 43 -209
32 -39 95 -75 133 -76 11 -1 31 -17 46 -39 29 -42 99 -81 143 -81 20 0 40 -13
70 -43 100 -103 244 -82 372 55 207 224 514 796 514 958 0 23 -7 54 -15 71
-18 34 -82 83 -130 99 -24 8 -37 20 -44 42 -32 90 -108 141 -213 143 -54 1
-72 5 -90 22 -33 31 -107 63 -149 63 -24 0 -49 -9 -75 -28z m152 -22 c23 -11
49 -29 58 -39 17 -19 16 -19 -41 -14 -57 5 -60 4 -86 -27 -15 -17 -27 -39 -27
-49 0 -35 -51 -118 -96 -155 -52 -44 -94 -122 -94 -176 0 -49 -26 -86 -95
-134 -76 -52 -105 -105 -105 -189 0 -57 0 -58 -64 -126 -71 -75 -83 -108 -72
-188 3 -25 15 -61 27 -79 23 -37 16 -41 -34 -20 -72 30 -114 117 -103 214 22
186 322 705 532 919 73 75 84 83 119 83 21 0 58 -9 81 -20z m275 -95 c71 -47
101 -154 63 -228 -17 -33 -452 -767 -529 -892 -52 -85 -99 -116 -174 -117
-104 0 -181 78 -181 183 0 53 6 64 246 467 135 227 243 420 240 427 -3 8 0 12
7 9 7 -2 21 12 32 33 61 114 121 156 209 148 30 -3 64 -15 87 -30z m-256 19
c14 -6 14 -9 -3 -28 -27 -30 -561 -930 -580 -977 -23 -59 -35 -48 -30 26 4 64
5 67 60 123 70 71 78 88 78 154 0 72 25 115 96 163 65 45 104 102 104 154 0
51 36 116 87 158 41 34 83 93 66 93 -5 0 -3 4 4 8 6 4 20 30 30 57 12 31 28
54 43 62 30 15 25 14 45 7z m429 -192 c65 -36 90 -70 88 -122 -7 -174 -324
-751 -523 -951 -99 -100 -195 -125 -277 -72 -56 37 -61 52 -14 46 95 -13 203
61 217 147 11 68 41 115 92 141 69 35 93 74 107 171 15 103 23 117 86 162 51
36 100 115 100 159 0 34 30 89 80 149 27 33 50 69 50 81 0 30 -36 87 -55 87
-8 0 -15 7 -15 15 0 20 7 19 64 -13z m-24 -84 c0 -11 -22 -45 -50 -76 -47 -53
-59 -77 -89 -189 -11 -42 -52 -91 -104 -126 -38 -25 -63 -82 -70 -154 -7 -81
-31 -121 -92 -155 -61 -33 -91 -74 -105 -144 -13 -63 -38 -98 -91 -124 -34
-18 -69 -26 -69 -17 0 2 13 19 30 38 32 36 562 920 587 979 l15 35 19 -24 c10
-13 19 -32 19 -43z"/>
<path d="M8330 4018 c0 -6 25 -37 56 -70 82 -86 77 -93 -73 -94 -133 -1 -153
-8 -153 -54 0 -18 17 -45 53 -86 85 -94 95 -124 50 -147 -16 -8 -46 -17 -68
-21 -186 -32 -227 -83 -179 -222 15 -44 23 -83 19 -95 -9 -26 -62 -49 -113
-49 -25 0 -49 -8 -67 -21 -22 -18 -26 -27 -21 -53 4 -17 18 -48 31 -68 45 -68
34 -84 -59 -90 -63 -5 -58 -28 6 -28 109 0 130 38 77 137 -41 76 -34 88 54 97
120 14 141 49 101 174 -40 126 -23 148 143 187 158 38 171 78 63 201 -29 32
-58 71 -66 86 l-14 26 124 -4 c148 -5 176 2 176 47 0 24 -13 44 -62 95 -60 63
-78 75 -78 52z"/>
<path d="M3766 4089 c-19 -28 -20 -39 -3 -39 18 0 41 40 29 52 -6 6 -15 1 -26
-13z"/>
<path d="M3896 4081 c-4 -5 9 -18 27 -30 18 -11 43 -31 56 -45 23 -25 24 -27
7 -45 -10 -11 -31 -23 -47 -26 -16 -4 -27 -11 -23 -16 15 -25 98 6 109 41 9
27 -15 63 -67 100 -44 32 -54 35 -62 21z"/>
<path d="M3790 3905 c14 -8 36 -14 49 -15 20 0 21 2 11 15 -7 8 -28 15 -49 15
l-36 -1 25 -14z"/>
<path d="M1216 3690 c-146 -45 -114 -263 39 -263 51 0 88 21 115 66 62 101
-39 231 -154 197z m109 -54 c68 -68 25 -176 -70 -176 -95 0 -138 108 -70 176
18 18 35 24 70 24 35 0 52 -6 70 -24z"/>
<path d="M5525 3330 c-22 -43 -63 -59 -186 -75 -136 -17 -178 -40 -214 -121
-11 -25 -24 -34 -59 -43 -59 -14 -103 -53 -116 -101 -8 -31 -16 -40 -40 -45
-38 -8 -86 -64 -100 -115 -6 -21 -18 -43 -26 -48 -25 -14 -156 -458 -149 -502
15 -87 105 -182 235 -249 127 -66 251 -90 308 -58 12 6 90 90 172 186 82 95
172 189 200 209 94 66 138 162 145 317 3 50 9 106 15 125 12 41 4 91 -21 142
-17 34 -17 39 -3 74 22 51 20 134 -5 188 -21 50 -106 146 -127 146 -7 0 -20
-13 -29 -30z m84 -57 c56 -63 77 -135 61 -204 -14 -59 -41 -83 -117 -105 -71
-21 -108 -12 -278 68 -71 33 -132 62 -134 64 -2 2 8 23 22 47 33 57 67 72 190
86 104 12 169 37 187 71 15 29 23 26 69 -27z m-358 -263 c61 -28 129 -58 151
-66 57 -20 138 -17 198 6 l51 20 16 -37 c23 -51 23 -122 0 -157 -27 -40 -100
-70 -172 -70 -70 -1 -113 19 -301 137 -65 41 -143 83 -171 93 -29 10 -53 22
-53 27 0 24 35 69 68 87 50 27 81 21 213 -40z m-206 -114 c28 -12 100 -55 160
-93 136 -87 181 -110 238 -123 51 -11 130 0 180 25 47 24 50 20 44 -48 -11
-119 -59 -216 -131 -265 l-35 -24 -36 41 c-29 31 -45 41 -69 41 -52 0 -70 10
-109 61 -35 46 -40 49 -81 49 -41 0 -47 3 -80 49 -40 54 -44 56 -108 66 -56 8
-59 11 -91 62 -18 28 -35 43 -56 48 -40 9 -44 17 -28 58 33 77 108 97 202 53z
m-190 -136 c18 0 47 -31 71 -75 l18 -34 -114 -231 -115 -232 -22 29 c-41 51
-39 75 27 299 66 222 82 259 107 250 8 -3 21 -6 28 -6z m184 -116 c23 -5 41
-19 61 -50 l30 -42 -75 -129 c-41 -71 -75 -135 -75 -141 0 -31 24 -4 76 86
102 175 96 168 143 164 36 -4 47 -11 71 -44 l29 -40 -24 -43 c-14 -23 -25 -47
-25 -53 0 -25 20 -10 46 34 l27 46 46 -7 c33 -4 54 -14 74 -36 15 -16 27 -33
27 -38 0 -12 -287 -343 -307 -354 -14 -8 -101 -12 -108 -5 -2 2 34 64 81 138
46 73 84 137 84 142 0 4 -6 8 -13 8 -7 0 -50 -61 -97 -136 -46 -74 -87 -137
-91 -140 -8 -4 -103 29 -128 45 -11 7 -8 19 18 64 17 30 31 60 31 66 0 26 -22
7 -51 -44 -17 -30 -36 -55 -41 -55 -15 0 -108 70 -108 81 0 5 52 117 117 249
122 253 118 247 182 234z"/>
<path d="M5515 3160 c-11 -17 5 -32 21 -19 8 6 14 15 14 20 0 12 -27 11 -35
-1z"/>
<path d="M5317 3133 c-8 -7 31 -53 45 -53 15 0 8 27 -10 43 -21 19 -26 20 -35
10z"/>
<path d="M5210 2946 c0 -24 16 -43 27 -32 8 8 -6 56 -17 56 -6 0 -10 -11 -10
-24z"/>
<path d="M5507 2833 c-12 -11 -7 -33 7 -33 12 0 26 20 26 36 0 7 -26 5 -33 -3z"/>
<path d="M5018 2819 c-10 -6 -18 -14 -18 -19 0 -13 21 -12 40 0 22 14 0 32
-22 19z"/>
<path d="M5240 2650 c0 -20 5 -30 15 -30 17 0 18 4 9 38 -9 32 -24 27 -24 -8z"/>
<path d="M5510 2585 c-7 -9 -10 -19 -6 -22 8 -9 38 9 44 25 5 17 -23 15 -38
-3z"/>
<path d="M1910 2964 c0 -3 14 -24 32 -46 35 -45 58 -117 51 -164 -4 -28 -9
-31 -73 -48 -86 -22 -196 -74 -243 -115 -19 -18 -46 -52 -58 -77 -20 -41 -21
-55 -15 -142 9 -117 36 -266 65 -346 23 -67 26 -70 40 -62 7 5 4 24 -9 56 -21
54 -60 232 -60 275 l0 27 40 -35 c75 -69 216 -125 272 -108 18 5 25 10 15 10
-67 3 -257 91 -257 118 0 30 132 143 166 143 6 0 34 -22 62 -50 29 -27 61 -50
72 -50 28 0 25 17 -7 34 -41 21 -89 74 -77 85 13 14 126 41 168 41 31 0 36 -3
36 -23 0 -28 26 -67 46 -67 18 0 18 -2 -6 44 -10 22 -17 43 -13 49 7 11 112 1
201 -19 107 -24 229 -93 273 -156 18 -24 19 -31 7 -45 -20 -24 -143 -81 -207
-94 -48 -11 -98 -36 -88 -45 2 -2 40 5 86 16 90 22 183 64 241 110 21 17 40
30 43 30 10 0 -25 -182 -53 -271 -35 -112 -92 -206 -151 -249 -128 -92 -374
-104 -574 -27 -64 24 -91 41 -132 84 -42 43 -53 50 -53 34 0 -31 53 -85 119
-120 94 -50 198 -73 331 -74 172 -1 282 33 366 115 35 33 52 42 115 54 144 29
271 107 325 199 74 128 39 315 -66 346 -34 10 -48 9 -97 -8 -32 -11 -65 -23
-74 -27 -15 -6 -17 1 -16 56 1 41 -5 74 -15 94 -27 51 -89 103 -163 139 -73
36 -216 75 -272 75 -33 0 -33 0 -33 50 0 28 -7 67 -16 88 -15 36 -70 102 -86
102 -15 0 -8 -27 13 -46 34 -31 59 -90 59 -139 l0 -45 -49 0 c-26 0 -76 -3
-110 -6 l-61 -7 0 52 c0 57 -18 108 -56 158 -22 29 -54 45 -54 27z m320 -263
c0 -5 -19 -35 -43 -67 -24 -33 -46 -67 -50 -76 -4 -13 -17 -18 -45 -18 -21 0
-71 -8 -110 -19 l-72 -19 0 22 c0 12 19 46 41 76 23 30 45 65 50 77 9 24 31
28 157 31 39 1 72 -2 72 -7z m249 -37 c95 -32 149 -64 200 -119 58 -63 64
-136 17 -198 -13 -17 -18 -14 -68 37 -88 87 -202 136 -367 156 -47 6 -87 13
-89 15 -2 2 11 24 30 48 18 25 40 58 49 75 l16 29 69 -9 c38 -5 102 -20 143
-34z m-509 17 c0 -4 -15 -28 -33 -52 -45 -58 -57 -83 -57 -113 0 -19 -11 -31
-54 -55 -29 -17 -74 -53 -100 -81 -26 -28 -51 -48 -57 -45 -5 4 -16 20 -25 37
-22 42 -14 116 16 158 33 46 131 106 219 135 86 27 91 28 91 16z m988 -321
c55 -52 74 -143 48 -232 -23 -79 -88 -149 -180 -192 -69 -33 -181 -65 -191
-54 -3 3 -1 16 5 29 8 17 37 36 88 59 97 44 163 106 181 173 15 51 9 116 -11
129 -20 12 -61 10 -108 -7 -54 -19 -50 -20 -50 13 0 37 23 58 91 82 70 25 100
25 127 0z m-70 -158 c4 -52 -29 -115 -80 -154 -41 -31 -118 -71 -125 -65 -2 3
8 56 24 118 l28 114 45 17 c25 10 59 16 75 15 28 -2 30 -5 33 -45z"/>
<path d="M53 2758 c-17 -22 -53 -240 -52 -308 1 -61 3 -54 36 113 l35 177 39
0 c21 0 39 -3 39 -7 0 -5 -15 -86 -33 -181 -28 -144 -31 -172 -19 -170 11 2
24 49 50 181 18 98 31 185 28 193 -7 18 -109 20 -123 2z"/>
<path d="M11987 2451 c-4 -24 -5 -46 -2 -49 11 -11 16 8 13 49 l-3 44 -8 -44z"/>
<path d="M2386 2401 c-3 -4 6 -19 19 -31 30 -28 32 -46 5 -60 -11 -6 -20 -17
-20 -26 0 -13 4 -13 30 1 38 20 49 59 24 86 -25 27 -51 41 -58 30z"/>
<path d="M11738 2380 c-127 -22 -245 -78 -278 -133 -23 -36 -28 -111 -7 -104
6 2 12 12 13 23 1 10 2 27 3 36 2 27 61 79 117 104 73 32 189 54 289 54 69 0
85 3 85 15 0 12 -16 15 -87 14 -49 -1 -109 -5 -135 -9z"/>
<path d="M2235 2360 c3 -5 13 -10 21 -10 8 0 14 5 14 10 0 6 -9 10 -21 10 -11
0 -17 -4 -14 -10z"/>
<path d="M120 2345 c0 -8 7 -15 15 -15 29 0 121 -47 152 -79 22 -21 33 -43 35
-68 4 -51 28 -56 28 -6 0 64 -43 112 -142 158 -61 28 -88 32 -88 10z"/>
<path d="M11965 2338 c-2 -7 -5 -22 -7 -32 -2 -12 -18 -24 -42 -33 -53 -18
-76 -40 -76 -73 0 -34 34 -65 85 -79 55 -15 75 -14 75 4 0 9 -9 15 -24 15 -54
0 -119 40 -109 66 7 18 62 48 71 39 4 -4 7 -13 7 -21 0 -34 21 -14 32 31 7 28
15 60 18 73 4 16 1 22 -10 22 -9 0 -17 -6 -20 -12z"/>
<path d="M67 2297 c-4 -23 -9 -57 -13 -74 -5 -27 -3 -33 10 -33 9 0 16 8 16
19 0 29 15 33 41 12 21 -17 22 -21 9 -36 -19 -23 -71 -45 -105 -45 -16 0 -25
-6 -25 -16 0 -14 7 -15 42 -10 119 19 162 96 79 144 -24 13 -29 21 -24 43 3
17 0 28 -10 32 -11 4 -16 -5 -20 -36z"/>
<path d="M1946 2271 c-9 -14 21 -28 82 -36 42 -6 52 -4 52 8 0 10 -16 17 -50
21 -28 4 -56 9 -64 12 -8 3 -17 1 -20 -5z"/>
<path d="M2284 2270 c-12 -5 -25 -14 -30 -21 -5 -9 1 -10 26 -6 18 4 36 7 40
7 4 0 10 7 14 15 6 17 -16 19 -50 5z"/>
<path d="M2140 2245 c0 -8 6 -15 14 -15 8 0 16 7 20 15 4 10 -1 15 -14 15 -11
0 -20 -7 -20 -15z"/>
<path d="M2076 2155 c10 -8 32 -15 48 -15 28 0 29 1 10 15 -10 8 -32 15 -48
15 -28 0 -29 -1 -10 -15z"/>
<path d="M3569 2101 c-35 -34 -39 -44 -39 -87 0 -67 26 -107 84 -129 58 -22
112 -10 150 35 77 93 16 220 -107 220 -44 0 -53 -4 -88 -39z m159 -16 c39 -33
48 -74 27 -119 -23 -48 -74 -71 -120 -56 -77 25 -100 111 -46 169 38 41 95 43
139 6z"/>
<path d="M307 2073 c-8 -10 -18 -40 -22 -68 -4 -27 -12 -56 -17 -62 -16 -21
-116 -74 -192 -104 -39 -15 -72 -33 -75 -40 -7 -21 57 -2 158 46 52 25 96 43
98 41 3 -3 -8 -76 -23 -163 -28 -153 -30 -159 -64 -191 -19 -17 -65 -47 -102
-65 -37 -17 -68 -38 -68 -45 0 -9 7 -11 23 -6 31 9 97 43 130 66 16 11 30 18
33 15 3 -3 -3 -50 -14 -106 -22 -117 -37 -139 -118 -172 -30 -13 -54 -29 -54
-37 0 -15 23 -11 86 19 90 42 86 30 168 479 41 223 73 406 72 408 -2 1 -10 -6
-19 -15z"/>
<path d="M11464 2065 c4 -16 38 -201 76 -410 l69 -380 42 -37 c54 -49 145 -78
244 -78 79 0 105 6 105 24 0 7 -35 11 -113 11 -106 0 -115 2 -166 30 -68 38
-88 66 -97 134 l-7 54 29 -6 c102 -22 185 -28 260 -18 75 11 105 23 91 37 -4
4 -32 2 -63 -5 -32 -6 -79 -11 -105 -11 -60 0 -199 26 -213 40 -11 11 -76 337
-68 344 2 3 25 -2 50 -10 109 -35 402 -26 402 12 0 11 -9 13 -42 7 -24 -5
-104 -8 -178 -7 -107 0 -147 4 -190 20 l-55 19 -20 112 c-14 76 -26 118 -39
130 -17 17 -18 17 -12 -12z"/>
<path d="M1567 1890 c-38 -33 -61 -78 -55 -107 3 -13 10 -8 26 24 12 23 38 54
57 69 19 14 32 30 29 35 -9 15 -22 10 -57 -21z"/>
<path d="M2840 1862 c0 -5 7 -23 16 -41 59 -118 -147 -234 -481 -271 -182 -20
-385 -7 -554 36 -52 13 -96 22 -99 20 -11 -11 59 -42 132 -57 364 -80 822 -21
986 127 54 49 69 99 44 150 -18 35 -44 57 -44 36z"/>
<path d="M1536 1712 c-3 -5 9 -22 27 -38 29 -27 30 -27 8 -2 -13 14 -20 31
-16 37 3 6 2 11 -4 11 -5 0 -12 -4 -15 -8z"/>
<path d="M2 1660 c0 -14 2 -19 5 -12 2 6 2 18 0 25 -3 6 -5 1 -5 -13z"/>
<path d="M11982 1663 c-15 -26 -16 -53 -2 -53 14 0 22 24 18 52 l-3 23 -13
-22z"/>
<path d="M11868 1639 c-20 -34 -23 -59 -8 -59 8 0 50 70 50 85 0 17 -28 0 -42
-26z"/>
<path d="M11735 1610 c-19 -36 -19 -40 0 -40 16 0 48 54 38 64 -12 12 -23 6
-38 -24z"/>
<path d="M9282 1390 c-64 -39 -86 -106 -58 -175 27 -64 121 -95 186 -62 93 47
91 196 -3 240 -46 22 -85 21 -125 -3z m141 -50 c85 -94 -45 -226 -142 -144
-58 49 -47 139 22 170 44 19 87 10 120 -26z"/>
<path d="M5493 1274 c-94 -46 -96 -191 -4 -239 98 -50 210 24 198 132 -10 94
-109 148 -194 107z m102 -28 c37 -16 65 -60 65 -102 0 -41 -59 -94 -105 -94
-29 0 -45 8 -71 34 -51 51 -43 119 18 156 39 24 48 24 93 6z"/>
<path d="M6887 1184 c-483 -87 -844 -488 -882 -981 -9 -107 0 -203 19 -203 9
0 11 21 8 86 -11 210 53 435 177 624 56 85 197 226 286 285 140 93 309 155
466 171 48 5 69 11 69 20 0 18 -39 17 -143 -2z"/>
<path d="M7092 1189 c2 -8 18 -15 34 -16 215 -19 412 -91 577 -213 l68 -50
-28 -35 c-15 -19 -31 -35 -35 -35 -4 0 -41 24 -83 54 -114 82 -233 134 -368
161 -67 13 -68 12 -51 -6 9 -10 25 -19 35 -19 32 0 182 -51 249 -85 68 -34
190 -119 190 -133 0 -4 -133 -156 -295 -337 -162 -182 -295 -335 -295 -340 0
-18 304 -137 340 -133 27 2 4 14 -130 68 -89 35 -163 67 -165 71 -3 3 146 174
330 380 184 206 335 379 335 386 0 6 -22 29 -48 52 -154 128 -376 219 -582
237 -68 6 -82 4 -78 -7z"/>
<path d="M9948 1135 c-257 -53 -448 -293 -448 -563 0 -54 3 -73 12 -70 8 3 14
30 15 74 7 154 61 284 162 385 305 306 817 145 905 -284 9 -42 16 -99 16 -127
0 -37 4 -50 13 -47 8 3 11 26 10 78 -3 100 -18 159 -64 256 -108 227 -368 351
-621 298z"/>
<path d="M7064 1062 c9 -14 58 -22 53 -8 -2 6 -16 12 -31 14 -16 2 -26 -1 -22
-6z"/>
<path d="M6879 1039 c-19 -16 -20 -19 -6 -15 10 3 43 9 73 12 63 8 63 24 0 24
-30 0 -51 -7 -67 -21z"/>
<path d="M6673 986 c-319 -150 -525 -460 -540 -813 -6 -123 -1 -173 17 -173 6
0 10 48 10 119 0 164 28 290 95 421 90 179 232 320 411 409 134 67 141 99 7
37z"/>
<path d="M7609 579 c-188 -210 -342 -388 -343 -397 -2 -21 397 -184 442 -180
26 2 -10 20 -188 92 -121 49 -220 90 -220 92 0 8 573 644 581 644 12 0 92 -98
137 -168 56 -87 101 -200 124 -312 16 -77 19 -119 15 -223 -4 -96 -3 -127 6
-124 25 8 34 174 16 302 -26 189 -118 381 -248 518 l-35 37 31 32 c18 18 37
28 46 25 8 -3 44 -43 81 -89 164 -204 247 -464 231 -720 -4 -71 -3 -108 3
-108 19 0 25 43 25 170 -1 215 -52 397 -161 569 -63 100 -166 221 -187 221 -8
0 -168 -172 -356 -381z"/>
<path d="M4481 919 c-87 -26 -175 -113 -239 -237 -90 -172 -108 -330 -63 -559
17 -89 28 -123 38 -123 11 0 13 8 9 28 -41 203 -48 262 -43 347 15 264 196
525 362 525 161 0 352 -270 332 -467 -10 -97 -86 -228 -203 -352 -67 -72 -73
-81 -49 -81 35 0 179 181 238 298 39 80 42 90 41 166 -3 173 -122 375 -261
441 -46 22 -116 28 -162 14z"/>
<path d="M10252 871 c-15 -48 -15 -51 1 -51 8 0 19 17 25 39 15 48 15 51 -1
51 -8 0 -19 -17 -25 -39z"/>
<path d="M6892 858 c5 -15 42 -22 66 -13 14 5 14 7 2 15 -23 15 -72 12 -68 -2z"/>
<path d="M9742 845 c-25 -55 -4 -78 23 -25 19 36 19 50 2 50 -8 0 -19 -11 -25
-25z"/>
<path d="M6806 808 c-37 -57 -28 -123 23 -172 60 -57 162 -39 203 35 21 38 20
108 -2 134 -18 22 -35 3 -21 -23 25 -47 3 -119 -44 -140 -48 -22 -84 -15 -122
23 -32 32 -35 40 -30 76 3 22 12 48 21 58 15 17 13 31 -5 31 -5 0 -15 -10 -23
-22z"/>
<path d="M661 793 c-46 -23 -71 -67 -71 -127 0 -43 4 -53 39 -87 34 -34 44
-39 85 -39 82 0 130 40 141 117 15 102 -101 184 -194 136z m104 -28 c50 -24
72 -79 51 -129 -18 -44 -52 -66 -99 -66 -82 0 -127 99 -76 164 36 46 72 55
124 31z"/>
<path d="M6884 756 c-8 -22 3 -33 18 -18 9 9 9 15 0 24 -9 9 -13 7 -18 -6z"/>
<path d="M6926 694 c-4 -14 -4 -29 -1 -33 8 -8 36 30 32 43 -7 21 -25 16 -31
-10z"/>
<path d="M10016 695 c-20 -30 -20 -45 -3 -45 13 0 37 40 37 60 0 18 -18 10
-34 -15z"/>
<path d="M4428 686 c-10 -7 -18 -18 -18 -25 0 -16 25 -14 40 4 18 22 0 37 -22
21z"/>
<path d="M10332 677 c-24 -25 -29 -47 -11 -47 14 0 48 41 49 58 0 19 -14 15
-38 -11z"/>
<path d="M2177 660 c-26 -18 -64 -34 -85 -37 -20 -3 -101 7 -179 21 -148 28
-169 27 -238 -7 -91 -44 -114 -84 -126 -221 -8 -87 -15 -112 -48 -181 -45 -91
-61 -143 -61 -197 0 -49 17 -49 25 0 4 20 9 51 12 67 3 17 23 65 45 107 35 66
42 91 53 185 14 124 30 163 83 197 77 50 101 53 225 28 62 -12 130 -25 152
-28 51 -7 119 10 160 42 18 13 44 24 59 24 73 0 220 -118 304 -244 59 -89 77
-159 77 -308 0 -73 4 -108 11 -108 18 0 25 89 14 193 -16 161 -50 229 -174
353 -92 92 -153 131 -217 140 -38 5 -50 1 -92 -26z"/>
<path d="M7250 666 c-5 -13 -14 -27 -19 -31 -16 -9 -13 -25 3 -25 18 0 46 38
46 62 0 26 -19 22 -30 -6z"/>
<path d="M4330 578 c-43 -70 -64 -205 -34 -215 7 -2 13 20 16 62 4 44 15 83
32 117 14 27 26 54 26 59 0 20 -21 7 -40 -23z"/>
<path d="M6572 573 c-39 -19 -72 -77 -55 -94 8 -8 15 -3 25 17 7 16 28 38 45
49 18 11 32 26 33 33 0 16 -8 15 -48 -5z"/>
<path d="M7790 536 c0 -12 10 -16 38 -16 21 0 48 -7 61 -16 30 -22 49 -4 21
21 -11 10 -41 20 -70 23 -41 4 -50 2 -50 -12z"/>
<path d="M9487 460 c-15 -12 -29 -36 -33 -55 -7 -42 11 -102 36 -115 12 -6
228 -10 580 -10 l561 0 24 25 c36 35 35 112 -1 149 l-27 26 -557 0 c-546 0
-558 0 -583 -20z m1147 -26 c19 -18 22 -94 4 -112 -9 -9 -149 -12 -569 -12
-494 0 -559 2 -573 16 -20 20 -20 73 0 102 l15 22 554 0 c490 0 555 -2 569
-16z"/>
<path d="M6985 440 c-7 -12 20 -24 34 -16 5 3 21 2 35 -4 28 -10 48 6 25 21
-19 12 -86 11 -94 -1z"/>
<path d="M7571 382 c-40 -21 -71 -73 -71 -117 0 -69 66 -135 135 -135 16 0 44
9 62 20 90 55 93 168 4 227 -41 28 -85 29 -130 5z m135 -46 c26 -26 34 -42 34
-71 0 -52 -53 -105 -105 -105 -52 0 -105 53 -105 105 0 52 53 105 105 105 29
0 45 -8 71 -34z"/>
<path d="M7606 298 c-21 -29 -3 -51 19 -22 16 22 19 44 6 44 -6 0 -17 -10 -25
-22z"/>
<path d="M7650 244 c-13 -33 -13 -54 0 -54 11 0 30 42 30 66 0 23 -20 16 -30
-12z"/>
<path d="M1924 376 c-91 -40 -148 -127 -149 -226 0 -75 27 -150 55 -150 15 0
15 5 -6 47 -73 144 33 316 196 316 160 0 271 -173 200 -313 -24 -47 -24 -50
-5 -50 39 0 67 135 45 215 -16 56 -81 132 -135 156 -48 22 -155 25 -201 5z"/>
<path d="M7913 300 c-98 -50 -96 -195 4 -237 113 -47 229 67 177 173 -38 75
-109 100 -181 64z m136 -44 c20 -21 26 -36 26 -72 0 -39 -5 -50 -33 -75 -71
-63 -172 -16 -172 82 0 22 10 41 35 66 32 32 40 35 77 30 26 -3 51 -15 67 -31z"/>
<path d="M7963 227 c-24 -11 -32 -37 -10 -37 6 0 21 7 31 15 26 20 9 36 -21
22z"/>
<path d="M7972 154 c-19 -13 -31 -44 -17 -44 15 0 55 34 55 46 0 18 -10 18
-38 -2z"/>
<path d="M1975 298 c-28 -15 -28 -15 -21 -27 7 -11 56 6 56 20 0 15 -15 17
-35 7z"/>
<path d="M6845 303 c-58 -16 -95 -67 -95 -130 0 -50 18 -82 59 -110 58 -39
134 -25 180 33 40 51 19 163 -36 192 -25 14 -83 22 -108 15z m86 -39 c95 -49
55 -194 -53 -194 -105 0 -139 145 -46 197 31 17 63 16 99 -3z"/>
<path d="M6856 211 c-19 -21 -21 -41 -3 -41 16 0 40 47 28 54 -5 3 -16 -3 -25
-13z"/>
<path d="M6896 149 c-14 -33 -13 -49 3 -49 16 0 35 60 23 72 -9 9 -15 3 -26
-23z"/>
<path d="M6379 237 c-70 -47 -76 -144 -12 -204 30 -29 41 -33 87 -33 59 0 96
21 121 70 32 61 5 147 -55 177 -40 20 -103 16 -141 -10z m115 -11 c93 -39 87
-164 -8 -196 -64 -21 -136 33 -136 100 0 36 30 81 63 95 40 18 41 18 81 1z"/>
<path d="M6425 159 c-4 -11 -4 -23 -1 -26 8 -9 36 17 36 33 0 22 -28 16 -35
-7z"/>
<path d="M6472 105 c-16 -34 -15 -45 2 -45 12 0 25 28 27 57 1 19 -19 11 -29
-12z"/>
<path d="M9459 234 c-11 -30 -5 -56 16 -74 10 -8 15 -31 15 -61 0 -59 17 -99
42 -99 18 0 18 2 4 22 -9 13 -16 43 -16 70 0 44 2 48 24 48 13 0 92 -31 175
-70 106 -49 162 -70 189 -69 36 0 36 1 12 11 -14 7 -80 36 -147 66 -66 29
-129 59 -139 67 -16 12 -15 14 14 29 47 24 62 20 114 -31 59 -58 95 -62 157
-17 22 16 55 39 72 52 49 34 78 29 129 -23 74 -75 124 -79 185 -15 48 51 60
54 111 30 24 -12 44 -26 44 -31 0 -11 -75 -50 -195 -100 -89 -38 -89 -38 -47
-39 23 0 50 4 60 10 74 43 224 103 265 106 l47 3 0 -32 c0 -17 -7 -44 -14 -60
-14 -26 -14 -27 12 -27 27 0 27 1 30 72 2 40 8 78 13 84 13 16 8 84 -6 85 -5
0 -12 -17 -15 -38 -4 -27 -12 -41 -30 -50 -38 -20 -60 -15 -120 22 -77 49
-110 47 -171 -10 -26 -25 -57 -45 -69 -45 -11 0 -48 25 -81 56 -57 53 -64 56
-101 51 -24 -3 -58 -20 -91 -45 -57 -43 -89 -62 -107 -62 -6 0 -34 23 -62 50
-59 59 -90 64 -153 25 -42 -26 -94 -32 -126 -14 -16 8 -18 17 -13 45 8 41 -11
47 -27 8z"/>
<path d="M1901 236 c-28 -34 -26 -146 3 -146 10 0 12 12 8 49 -2 27 1 58 8 71
15 27 -1 48 -19 26z"/>
</g>
</svg>
